# xmcd
#
# Track frame offsets: 
#        151
#        11698
#        24737
#        45066
#        55977
#        72269
#        88021
#        102723
#        117243
#        126678
#        140136
#
# Disc length: 2075 seconds
#
# Revision: 0
# Processed by: cddbd v1.5.2PL0 Copyright (c) Steve Scherf et al.
# Submitted via: ExactAudioCopy v0.99pb5
#
DISCID=a108190b
DTITLE=Rick Robichaud  - Robichaud Road
DYEAR=1999
DGENRE=Blues
TTITLE0=Hit Rock Bottom
TTITLE1=Give It All To You
TTITLE2=Dreams
TTITLE3=Screams And Shouts
TTITLE4=4 Leaf Clover
TTITLE5=Can't Trust Lust
TTITLE6=One Love
TTITLE7=Time Flies By
TTITLE8=Ph.D. In R&B
TTITLE9=Girl Next Door
TTITLE10=The Sounds Of Stevie Ray
EXTD=
EXTT0=
EXTT1=
EXTT2=
EXTT3=
EXTT4=
EXTT5=
EXTT6=
EXTT7=
EXTT8=
EXTT9=
EXTT10=
PLAYORDER=
